<?xml version="1.0" standalone="no"?>
<!DOCTYPE svg PUBLIC "-//W3C//DTD SVG 20010904//EN"
 "http://www.w3.org/TR/2001/REC-SVG-20010904/DTD/svg10.dtd">
<svg version="1.0" xmlns="http://www.w3.org/2000/svg"
 width="354.000000pt" height="315.000000pt" viewBox="0 0 354.000000 315.000000"
 preserveAspectRatio="xMidYMid meet">

<g transform="translate(0.000000,315.000000) scale(0.100000,-0.100000)"
fill="#000000" stroke="none">
<path d="M0 1575 l0 -1575 1770 0 1770 0 0 1575 0 1575 -1770 0 -1770 0 0
-1575z m1708 1061 c40 -21 66 -83 58 -139 -8 -55 -57 -157 -105 -222 -20 -27
-50 -68 -66 -90 -46 -62 -260 -278 -355 -358 -195 -164 -231 -194 -292 -238
-58 -43 -379 -259 -424 -285 -18 -11 -17 -14 21 -54 57 -60 248 -215 327 -266
173 -111 388 -188 388 -139 0 36 89 165 114 165 5 0 17 6 25 14 9 8 31 17 48
21 46 9 93 -36 93 -90 0 -74 -71 -162 -150 -186 -41 -12 -50 -32 -34 -73 10
-26 65 -16 100 18 6 6 26 25 45 41 86 75 207 264 343 534 77 151 236 501 236
517 0 9 104 227 161 339 63 124 96 139 180 82 38 -26 38 -19 15 -177 -24 -162
-50 -680 -35 -680 23 0 206 219 384 458 322 435 385 511 437 533 27 11 32 9
63 -21 46 -45 50 -61 26 -113 -78 -171 -221 -629 -261 -835 -64 -328 -69 -670
-12 -759 22 -35 7 -46 -52 -38 -28 4 -59 12 -69 17 -54 28 -78 199 -58 413 26
282 124 720 216 964 14 36 23 66 21 68 -2 2 -16 -18 -32 -44 -68 -118 -380
-550 -453 -627 -20 -21 -54 -51 -75 -67 -35 -26 -44 -28 -91 -23 l-52 6 -6
-61 c-8 -92 -31 -111 -87 -69 l-30 22 5 260 c2 144 11 320 19 391 7 72 12 131
11 133 -2 2 -8 -14 -15 -35 -6 -21 -23 -60 -36 -88 -13 -27 -46 -106 -73 -175
-110 -281 -260 -588 -367 -752 -148 -227 -252 -317 -375 -326 -80 -6 -122 16
-161 85 -29 51 -32 53 -71 53 -165 1 -484 166 -691 357 -32 30 -62 51 -66 46
-10 -11 -140 -339 -140 -353 0 -16 -47 -60 -64 -60 -9 0 -23 14 -32 32 -9 17
-25 40 -35 51 -10 12 -19 26 -19 33 0 6 24 61 54 121 63 125 106 222 106 234
0 5 -13 22 -30 37 -16 15 -32 39 -35 53 -6 22 1 31 52 69 38 29 68 44 88 45
33 0 22 -17 172 265 31 58 79 146 107 195 27 50 73 131 101 182 29 51 57 99
65 107 19 24 6 19 -62 -22 -162 -99 -396 -193 -477 -192 -14 1 -42 9 -61 18
-44 22 -71 85 -52 126 16 35 42 34 42 -1 0 -16 4 -34 9 -42 12 -19 62 -3 251
83 172 79 141 63 324 166 133 76 153 91 187 140 68 97 64 94 98 80 17 -7 35
-18 41 -25 8 -9 29 -3 93 31 103 53 247 113 312 130 57 15 123 11 163 -10z
m143 -928 c52 -17 109 -59 109 -78 0 -23 -11 -32 -25 -20 -7 6 -48 13 -91 16
-220 15 -421 -133 -563 -413 -27 -54 -67 -193 -75 -265 -4 -32 -12 -58 -17
-58 -20 0 -30 120 -15 195 7 35 41 128 63 170 l16 30 -26 -28 c-15 -15 -26
-31 -24 -35 1 -4 -8 -23 -20 -43 -12 -19 -29 -61 -37 -94 -9 -32 -18 -61 -21
-64 -12 -11 7 86 32 163 74 237 229 411 443 498 95 39 186 49 251 26z"/>
<path d="M1534 2530 c-58 -19 -336 -155 -436 -214 -32 -18 -58 -45 -78 -79
-17 -29 -39 -65 -49 -82 -47 -79 -331 -594 -331 -601 0 -17 240 142 368 245
46 36 99 78 118 93 113 87 365 336 437 432 91 124 118 184 92 210 -21 20 -45
20 -121 -4z"/>
<path d="M1437 970 c-25 -20 -83 -127 -74 -137 9 -8 72 24 105 55 24 23 32 38
32 66 0 43 -22 48 -63 16z"/>
</g>
</svg>
